<mxfile host="app.diagrams.net" modified="2022-02-09T02:10:59.660Z" agent="5.0 (Macintosh; Intel Mac OS X 10_15_7) AppleWebKit/605.1.15 (KHTML, like Gecko) Version/15.2 Safari/605.1.15" etag="KwcU7yp4ImL73B0o0AdI" version="16.5.3" type="github" pages="5">
  <diagram id="hP3LC-2rhvLcPAh9pIMI" name="封面">
    <mxGraphModel dx="798" dy="604" grid="1" gridSize="10" guides="1" tooltips="1" connect="1" arrows="1" fold="1" page="1" pageScale="1" pageWidth="827" pageHeight="1169" math="0" shadow="0">
      <root>
        <mxCell id="PdMEse2JsF46Ky_xkHzt-0" />
        <mxCell id="PdMEse2JsF46Ky_xkHzt-1" parent="PdMEse2JsF46Ky_xkHzt-0" />
      </root>
    </mxGraphModel>
  </diagram>
  <diagram name="收款" id="74e2e168-ea6b-b213-b513-2b3c1d86103e">
    <mxGraphModel dx="798" dy="604" grid="1" gridSize="10" guides="1" tooltips="1" connect="1" arrows="1" fold="1" page="1" pageScale="1" pageWidth="1100" pageHeight="850" background="none" math="0" shadow="0">
      <root>
        <mxCell id="0" />
        <mxCell id="1" parent="0" />
      </root>
    </mxGraphModel>
  </diagram>
  <diagram id="cE1Wlm5ofdMPgio7Bnxj" name="付款-请求书">
    <mxGraphModel dx="798" dy="604" grid="1" gridSize="10" guides="1" tooltips="1" connect="1" arrows="1" fold="1" page="1" pageScale="1" pageWidth="827" pageHeight="1169" math="0" shadow="0">
      <root>
        <mxCell id="lhXzS-GeDIaGtKJ_q96J-0" />
        <mxCell id="lhXzS-GeDIaGtKJ_q96J-1" parent="lhXzS-GeDIaGtKJ_q96J-0" />
      </root>
    </mxGraphModel>
  </diagram>
  <diagram id="-wVmNRxXz1zxM62I7D7n" name="付款-公司信用卡">
    <mxGraphModel dx="798" dy="604" grid="1" gridSize="10" guides="1" tooltips="1" connect="1" arrows="1" fold="1" page="1" pageScale="1" pageWidth="827" pageHeight="1169" math="0" shadow="0">
      <root>
        <mxCell id="PMSKEqaPQ_SmTEYjm-Jw-0" />
        <mxCell id="PMSKEqaPQ_SmTEYjm-Jw-1" parent="PMSKEqaPQ_SmTEYjm-Jw-0" />
      </root>
    </mxGraphModel>
  </diagram>
  <diagram id="w4UZPbJohAq0fnszggtD" name="付款-个人垫付">
    <mxGraphModel dx="798" dy="604" grid="1" gridSize="10" guides="1" tooltips="1" connect="1" arrows="1" fold="1" page="1" pageScale="1" pageWidth="827" pageHeight="1169" math="0" shadow="0">
      <root>
        <mxCell id="ccnptiWn15_tdWHkwnDp-0" />
        <mxCell id="ccnptiWn15_tdWHkwnDp-1" parent="ccnptiWn15_tdWHkwnDp-0" />
      </root>
    </mxGraphModel>
  </diagram>
</mxfile>
